<?xml version="1.0" standalone="no"?>
<!DOCTYPE svg PUBLIC "-//W3C//DTD SVG 20010904//EN"
 "http://www.w3.org/TR/2001/REC-SVG-20010904/DTD/svg10.dtd">
<svg version="1.0" xmlns="http://www.w3.org/2000/svg"
 width="1075.000000pt" height="1075.000000pt" viewBox="0 0 1075.000000 1075.000000"
 preserveAspectRatio="xMidYMid meet">
<metadata>
Created by potrace 1.14, written by Peter Selinger 2001-2017
</metadata>
<g transform="translate(0.000000,1075.000000) scale(0.100000,-0.100000)"
fill="#000000" stroke="none">
<path d="M1570 8255 l0 -755 -785 0 -785 0 0 -2872 0 -2873 4593 0 4592 0 0
758 0 757 783 0 782 0 0 2870 0 2870 -4590 0 -4590 0 0 -755z m4831 -721 c320
-54 629 -228 841 -472 378 -434 460 -1052 208 -1567 -206 -423 -593 -711
-1060 -791 -119 -20 -405 -14 -520 11 -281 62 -519 192 -720 394 -207 208
-333 442 -396 731 -27 121 -27 439 0 560 129 595 586 1036 1176 1135 110 19
358 18 471 -1z m-4831 -2499 l0 -1765 3450 0 3450 0 0 -400 0 -400 -962 -2
c-530 -1 -2276 -2 -3880 -3 l-2918 -2 0 2169 0 2168 430 0 430 0 0 -1765z
m1923 1541 c39 -16 82 -61 96 -99 15 -38 15 -636 0 -674 -15 -40 -48 -73 -94
-94 -36 -17 -70 -19 -345 -19 -275 0 -309 2 -345 19 -48 22 -69 44 -90 94 -12
30 -15 89 -15 339 0 273 2 307 19 343 20 43 40 64 86 88 25 14 77 16 343 17
244 0 320 -3 345 -14z m6050 -19 c75 -57 77 -68 77 -412 0 -252 -3 -312 -15
-342 -21 -50 -42 -72 -90 -94 -36 -17 -70 -19 -345 -19 -275 0 -309 2 -345 19
-48 22 -69 44 -90 94 -12 30 -15 89 -15 339 0 273 2 307 19 343 20 43 39 64
86 89 26 14 73 15 356 13 l326 -2 36 -28z"/>
</g>
</svg>
